<mxfile host="Electron" agent="Mozilla/5.0 (Macintosh; Intel Mac OS X 10_15_7) AppleWebKit/537.36 (KHTML, like Gecko) draw.io/26.0.9 Chrome/128.0.6613.186 Electron/32.2.5 Safari/537.36" version="26.0.9">
  <diagram name="ページ1" id="FIQ_21r4DB-oALnTY76o">
    <mxGraphModel dx="1433" dy="802" grid="1" gridSize="10" guides="1" tooltips="1" connect="1" arrows="1" fold="1" page="1" pageScale="1" pageWidth="1169" pageHeight="827" math="0" shadow="0">
      <root>
        <mxCell id="0" />
        <mxCell id="1" parent="0" />
        <mxCell id="SZCZL3pSRK76lvEdMUhm-2" value="AWS Cloud" style="points=[[0,0],[0.25,0],[0.5,0],[0.75,0],[1,0],[1,0.25],[1,0.5],[1,0.75],[1,1],[0.75,1],[0.5,1],[0.25,1],[0,1],[0,0.75],[0,0.5],[0,0.25]];outlineConnect=0;gradientColor=none;html=1;whiteSpace=wrap;fontSize=12;fontStyle=0;container=1;pointerEvents=0;collapsible=0;recursiveResize=0;shape=mxgraph.aws4.group;grIcon=mxgraph.aws4.group_aws_cloud_alt;strokeColor=#232F3E;fillColor=none;verticalAlign=top;align=left;spacingLeft=30;fontColor=#232F3E;dashed=0;" vertex="1" parent="1">
          <mxGeometry x="40" y="120" width="880" height="960" as="geometry" />
        </mxCell>
        <mxCell id="SZCZL3pSRK76lvEdMUhm-3" value="&lt;font style=&quot;font-size: 15px; color: rgb(50, 160, 255);&quot;&gt;東京リージョン&lt;/font&gt;" style="shape=mxgraph.ibm.box;prType=region;fontStyle=0;verticalAlign=top;align=left;spacingLeft=32;spacingTop=4;fillColor=none;rounded=0;whiteSpace=wrap;html=1;strokeColor=light-dark(#4dc9ff, #707070);strokeWidth=2;dashed=1;container=1;spacing=-4;collapsible=0;expand=0;recursiveResize=0;" vertex="1" parent="SZCZL3pSRK76lvEdMUhm-2">
          <mxGeometry x="40" y="330" width="830" height="620" as="geometry" />
        </mxCell>
        <mxCell id="SZCZL3pSRK76lvEdMUhm-34" value="VPC" style="sketch=0;outlineConnect=0;gradientColor=none;html=1;whiteSpace=wrap;fontSize=12;fontStyle=0;shape=mxgraph.aws4.group;grIcon=mxgraph.aws4.group_vpc;strokeColor=light-dark(#006600,#214210);fillColor=none;verticalAlign=top;align=left;spacingLeft=30;fontColor=#879196;dashed=0;" vertex="1" parent="SZCZL3pSRK76lvEdMUhm-3">
          <mxGeometry x="67.5" y="80" width="612.5" height="490" as="geometry" />
        </mxCell>
        <mxCell id="SZCZL3pSRK76lvEdMUhm-35" value="Private subnet" style="points=[[0,0],[0.25,0],[0.5,0],[0.75,0],[1,0],[1,0.25],[1,0.5],[1,0.75],[1,1],[0.75,1],[0.5,1],[0.25,1],[0,1],[0,0.75],[0,0.5],[0,0.25]];outlineConnect=0;html=1;whiteSpace=wrap;fontSize=12;fontStyle=0;container=1;pointerEvents=0;collapsible=0;recursiveResize=0;shape=mxgraph.aws4.group;grIcon=mxgraph.aws4.group_security_group;grStroke=0;strokeColor=#82b366;fillColor=#d5e8d4;verticalAlign=top;align=left;spacingLeft=30;dashed=0;" vertex="1" parent="SZCZL3pSRK76lvEdMUhm-3">
          <mxGeometry x="140" y="90" width="220" height="130" as="geometry" />
        </mxCell>
        <mxCell id="SZCZL3pSRK76lvEdMUhm-36" value="Availability Zone" style="fillColor=none;strokeColor=#147EBA;dashed=1;verticalAlign=top;fontStyle=0;fontColor=#147EBA;whiteSpace=wrap;html=1;" vertex="1" parent="SZCZL3pSRK76lvEdMUhm-3">
          <mxGeometry x="130" y="50" width="240" height="550" as="geometry" />
        </mxCell>
        <mxCell id="SZCZL3pSRK76lvEdMUhm-37" value="Availability Zone" style="fillColor=none;strokeColor=#147EBA;dashed=1;verticalAlign=top;fontStyle=0;fontColor=#147EBA;whiteSpace=wrap;html=1;" vertex="1" parent="SZCZL3pSRK76lvEdMUhm-3">
          <mxGeometry x="400" y="50" width="240" height="550" as="geometry" />
        </mxCell>
        <mxCell id="SZCZL3pSRK76lvEdMUhm-44" value="Private subnet" style="points=[[0,0],[0.25,0],[0.5,0],[0.75,0],[1,0],[1,0.25],[1,0.5],[1,0.75],[1,1],[0.75,1],[0.5,1],[0.25,1],[0,1],[0,0.75],[0,0.5],[0,0.25]];outlineConnect=0;html=1;whiteSpace=wrap;fontSize=12;fontStyle=0;container=1;pointerEvents=0;collapsible=0;recursiveResize=0;shape=mxgraph.aws4.group;grIcon=mxgraph.aws4.group_security_group;grStroke=0;strokeColor=#82b366;fillColor=#d5e8d4;verticalAlign=top;align=left;spacingLeft=30;dashed=0;" vertex="1" parent="SZCZL3pSRK76lvEdMUhm-3">
          <mxGeometry x="410" y="90" width="220" height="130" as="geometry" />
        </mxCell>
        <mxCell id="SZCZL3pSRK76lvEdMUhm-58" value="NAT Gateway" style="sketch=0;outlineConnect=0;fontColor=#232F3E;gradientColor=none;fillColor=#8C4FFF;strokeColor=none;dashed=0;verticalLabelPosition=bottom;verticalAlign=top;align=center;html=1;fontSize=12;fontStyle=0;aspect=fixed;pointerEvents=1;shape=mxgraph.aws4.nat_gateway;" vertex="1" parent="SZCZL3pSRK76lvEdMUhm-44">
          <mxGeometry x="170" y="52" width="28" height="28" as="geometry" />
        </mxCell>
        <mxCell id="SZCZL3pSRK76lvEdMUhm-43" value="Application Load Balancer" style="sketch=0;points=[[0,0,0],[0.25,0,0],[0.5,0,0],[0.75,0,0],[1,0,0],[0,1,0],[0.25,1,0],[0.5,1,0],[0.75,1,0],[1,1,0],[0,0.25,0],[0,0.5,0],[0,0.75,0],[1,0.25,0],[1,0.5,0],[1,0.75,0]];outlineConnect=0;fontColor=#232F3E;fillColor=#3333FF;strokeColor=#ffffff;dashed=0;verticalLabelPosition=bottom;verticalAlign=top;align=center;html=1;fontSize=12;fontStyle=0;aspect=fixed;shape=mxgraph.aws4.resourceIcon;resIcon=mxgraph.aws4.elastic_load_balancing;gradientColor=#AEA8FF;gradientDirection=east;" vertex="1" parent="SZCZL3pSRK76lvEdMUhm-3">
          <mxGeometry x="350" y="116" width="78" height="78" as="geometry" />
        </mxCell>
        <mxCell id="SZCZL3pSRK76lvEdMUhm-39" value="Private subnet" style="points=[[0,0],[0.25,0],[0.5,0],[0.75,0],[1,0],[1,0.25],[1,0.5],[1,0.75],[1,1],[0.75,1],[0.5,1],[0.25,1],[0,1],[0,0.75],[0,0.5],[0,0.25]];outlineConnect=0;gradientColor=none;html=1;whiteSpace=wrap;fontSize=12;fontStyle=0;container=1;pointerEvents=0;collapsible=0;recursiveResize=0;shape=mxgraph.aws4.group;grIcon=mxgraph.aws4.group_security_group;grStroke=0;strokeColor=#00A4A6;fillColor=#E6F6F7;verticalAlign=top;align=left;spacingLeft=30;fontColor=#147EBA;dashed=0;" vertex="1" parent="SZCZL3pSRK76lvEdMUhm-3">
          <mxGeometry x="140" y="240" width="220" height="130" as="geometry" />
        </mxCell>
        <mxCell id="SZCZL3pSRK76lvEdMUhm-51" value="EC2 インスタンス" style="sketch=0;points=[[0,0,0],[0.25,0,0],[0.5,0,0],[0.75,0,0],[1,0,0],[0,1,0],[0.25,1,0],[0.5,1,0],[0.75,1,0],[1,1,0],[0,0.25,0],[0,0.5,0],[0,0.75,0],[1,0.25,0],[1,0.5,0],[1,0.75,0]];outlineConnect=0;fontColor=#232F3E;fillColor=#ED7100;strokeColor=#ffffff;dashed=0;verticalLabelPosition=bottom;verticalAlign=top;align=center;html=1;fontSize=12;fontStyle=0;aspect=fixed;shape=mxgraph.aws4.resourceIcon;resIcon=mxgraph.aws4.ec2;" vertex="1" parent="SZCZL3pSRK76lvEdMUhm-39">
          <mxGeometry x="41" y="31" width="78" height="78" as="geometry" />
        </mxCell>
        <mxCell id="SZCZL3pSRK76lvEdMUhm-56" value="IAM ロール" style="sketch=0;outlineConnect=0;fontColor=#232F3E;gradientColor=none;fillColor=#DD344C;strokeColor=none;dashed=0;verticalLabelPosition=bottom;verticalAlign=top;align=center;html=1;fontSize=12;fontStyle=0;aspect=fixed;pointerEvents=1;shape=mxgraph.aws4.role;" vertex="1" parent="SZCZL3pSRK76lvEdMUhm-39">
          <mxGeometry x="150" y="40" width="33.68" height="19" as="geometry" />
        </mxCell>
        <mxCell id="SZCZL3pSRK76lvEdMUhm-47" value="Private subnet" style="points=[[0,0],[0.25,0],[0.5,0],[0.75,0],[1,0],[1,0.25],[1,0.5],[1,0.75],[1,1],[0.75,1],[0.5,1],[0.25,1],[0,1],[0,0.75],[0,0.5],[0,0.25]];outlineConnect=0;gradientColor=none;html=1;whiteSpace=wrap;fontSize=12;fontStyle=0;container=1;pointerEvents=0;collapsible=0;recursiveResize=0;shape=mxgraph.aws4.group;grIcon=mxgraph.aws4.group_security_group;grStroke=0;strokeColor=#00A4A6;fillColor=#E6F6F7;verticalAlign=top;align=left;spacingLeft=30;fontColor=#147EBA;dashed=0;" vertex="1" parent="SZCZL3pSRK76lvEdMUhm-3">
          <mxGeometry x="410" y="240" width="220" height="130" as="geometry" />
        </mxCell>
        <mxCell id="SZCZL3pSRK76lvEdMUhm-57" value="IAM ロール" style="sketch=0;outlineConnect=0;fontColor=#232F3E;gradientColor=none;fillColor=#DD344C;strokeColor=none;dashed=0;verticalLabelPosition=bottom;verticalAlign=top;align=center;html=1;fontSize=12;fontStyle=0;aspect=fixed;pointerEvents=1;shape=mxgraph.aws4.role;" vertex="1" parent="SZCZL3pSRK76lvEdMUhm-47">
          <mxGeometry x="147.99999999999994" y="40" width="33.68" height="19" as="geometry" />
        </mxCell>
        <mxCell id="SZCZL3pSRK76lvEdMUhm-41" value="Private subnet" style="points=[[0,0],[0.25,0],[0.5,0],[0.75,0],[1,0],[1,0.25],[1,0.5],[1,0.75],[1,1],[0.75,1],[0.5,1],[0.25,1],[0,1],[0,0.75],[0,0.5],[0,0.25]];outlineConnect=0;gradientColor=none;html=1;whiteSpace=wrap;fontSize=12;fontStyle=0;container=1;pointerEvents=0;collapsible=0;recursiveResize=0;shape=mxgraph.aws4.group;grIcon=mxgraph.aws4.group_security_group;grStroke=0;strokeColor=#00A4A6;fillColor=#E6F6F7;verticalAlign=top;align=left;spacingLeft=30;fontColor=#147EBA;dashed=0;" vertex="1" parent="SZCZL3pSRK76lvEdMUhm-3">
          <mxGeometry x="140" y="387" width="220" height="130" as="geometry" />
        </mxCell>
        <mxCell id="SZCZL3pSRK76lvEdMUhm-42" value="AWS Aurora" style="sketch=0;points=[[0,0,0],[0.25,0,0],[0.5,0,0],[0.75,0,0],[1,0,0],[0,1,0],[0.25,1,0],[0.5,1,0],[0.75,1,0],[1,1,0],[0,0.25,0],[0,0.5,0],[0,0.75,0],[1,0.25,0],[1,0.5,0],[1,0.75,0]];outlineConnect=0;fontColor=#232F3E;fillColor=#3333FF;strokeColor=#ffffff;dashed=0;verticalLabelPosition=bottom;verticalAlign=top;align=center;html=1;fontSize=12;fontStyle=0;aspect=fixed;shape=mxgraph.aws4.resourceIcon;resIcon=mxgraph.aws4.aurora;gradientColor=#AEA8FF;gradientDirection=east;" vertex="1" parent="SZCZL3pSRK76lvEdMUhm-41">
          <mxGeometry x="40" y="30" width="78" height="78" as="geometry" />
        </mxCell>
        <mxCell id="SZCZL3pSRK76lvEdMUhm-49" value="Private subnet" style="points=[[0,0],[0.25,0],[0.5,0],[0.75,0],[1,0],[1,0.25],[1,0.5],[1,0.75],[1,1],[0.75,1],[0.5,1],[0.25,1],[0,1],[0,0.75],[0,0.5],[0,0.25]];outlineConnect=0;gradientColor=none;html=1;whiteSpace=wrap;fontSize=12;fontStyle=0;container=1;pointerEvents=0;collapsible=0;recursiveResize=0;shape=mxgraph.aws4.group;grIcon=mxgraph.aws4.group_security_group;grStroke=0;strokeColor=#00A4A6;fillColor=#E6F6F7;verticalAlign=top;align=left;spacingLeft=30;fontColor=#147EBA;dashed=0;" vertex="1" parent="SZCZL3pSRK76lvEdMUhm-3">
          <mxGeometry x="410" y="387" width="220" height="130" as="geometry" />
        </mxCell>
        <mxCell id="SZCZL3pSRK76lvEdMUhm-50" value="AWS Aurora" style="sketch=0;points=[[0,0,0],[0.25,0,0],[0.5,0,0],[0.75,0,0],[1,0,0],[0,1,0],[0.25,1,0],[0.5,1,0],[0.75,1,0],[1,1,0],[0,0.25,0],[0,0.5,0],[0,0.75,0],[1,0.25,0],[1,0.5,0],[1,0.75,0]];outlineConnect=0;fontColor=#232F3E;fillColor=#3333FF;strokeColor=#ffffff;dashed=0;verticalLabelPosition=bottom;verticalAlign=top;align=center;html=1;fontSize=12;fontStyle=0;aspect=fixed;shape=mxgraph.aws4.resourceIcon;resIcon=mxgraph.aws4.aurora;gradientColor=#AEA8FF;gradientDirection=east;" vertex="1" parent="SZCZL3pSRK76lvEdMUhm-49">
          <mxGeometry x="40" y="30" width="78" height="78" as="geometry" />
        </mxCell>
        <mxCell id="SZCZL3pSRK76lvEdMUhm-52" value="EC2 インスタンス" style="sketch=0;points=[[0,0,0],[0.25,0,0],[0.5,0,0],[0.75,0,0],[1,0,0],[0,1,0],[0.25,1,0],[0.5,1,0],[0.75,1,0],[1,1,0],[0,0.25,0],[0,0.5,0],[0,0.75,0],[1,0.25,0],[1,0.5,0],[1,0.75,0]];outlineConnect=0;fontColor=#232F3E;fillColor=#ED7100;strokeColor=#ffffff;dashed=0;verticalLabelPosition=bottom;verticalAlign=top;align=center;html=1;fontSize=12;fontStyle=0;aspect=fixed;shape=mxgraph.aws4.resourceIcon;resIcon=mxgraph.aws4.ec2;" vertex="1" parent="SZCZL3pSRK76lvEdMUhm-3">
          <mxGeometry x="450" y="271" width="78" height="78" as="geometry" />
        </mxCell>
        <mxCell id="SZCZL3pSRK76lvEdMUhm-53" value="S3&lt;div&gt;パケット&lt;/div&gt;" style="sketch=0;points=[[0,0,0],[0.25,0,0],[0.5,0,0],[0.75,0,0],[1,0,0],[0,1,0],[0.25,1,0],[0.5,1,0],[0.75,1,0],[1,1,0],[0,0.25,0],[0,0.5,0],[0,0.75,0],[1,0.25,0],[1,0.5,0],[1,0.75,0]];outlineConnect=0;fontColor=#232F3E;fillColor=#7AA116;strokeColor=#ffffff;dashed=0;verticalLabelPosition=bottom;verticalAlign=top;align=center;html=1;fontSize=12;fontStyle=0;aspect=fixed;shape=mxgraph.aws4.resourceIcon;resIcon=mxgraph.aws4.s3;" vertex="1" parent="SZCZL3pSRK76lvEdMUhm-3">
          <mxGeometry x="730" y="266" width="78" height="78" as="geometry" />
        </mxCell>
        <mxCell id="SZCZL3pSRK76lvEdMUhm-54" value="&lt;span style=&quot;background-color: light-dark(#ffffff, var(--ge-dark-color, #121212));&quot;&gt;VPC Flow&lt;/span&gt;&lt;div&gt;&lt;span style=&quot;background-color: light-dark(#ffffff, var(--ge-dark-color, #121212));&quot;&gt;Logs&lt;/span&gt;&lt;/div&gt;" style="sketch=0;outlineConnect=0;fontColor=#232F3E;gradientColor=none;fillColor=#8C4FFF;strokeColor=none;dashed=0;verticalLabelPosition=bottom;verticalAlign=top;align=center;html=1;fontSize=12;fontStyle=0;aspect=fixed;pointerEvents=1;shape=mxgraph.aws4.flow_logs;" vertex="1" parent="SZCZL3pSRK76lvEdMUhm-3">
          <mxGeometry x="660" y="290.5" width="39" height="39" as="geometry" />
        </mxCell>
        <mxCell id="SZCZL3pSRK76lvEdMUhm-55" value="&lt;span style=&quot;background-color: light-dark(rgb(255, 255, 255), rgb(189, 199, 212));&quot;&gt;Internal&lt;br&gt;Gateway&lt;/span&gt;" style="sketch=0;outlineConnect=0;fontColor=#232F3E;gradientColor=none;fillColor=#8C4FFF;strokeColor=none;dashed=0;verticalLabelPosition=bottom;verticalAlign=top;align=center;html=1;fontSize=12;fontStyle=0;aspect=fixed;pointerEvents=1;shape=mxgraph.aws4.internet_gateway;" vertex="1" parent="SZCZL3pSRK76lvEdMUhm-3">
          <mxGeometry x="360" y="20" width="48" height="48" as="geometry" />
        </mxCell>
        <mxCell id="SZCZL3pSRK76lvEdMUhm-59" value="" style="sketch=0;outlineConnect=0;fontColor=#232F3E;gradientColor=none;fillColor=#8C4FFF;strokeColor=none;dashed=0;verticalLabelPosition=bottom;verticalAlign=top;align=center;html=1;fontSize=12;fontStyle=0;aspect=fixed;pointerEvents=1;shape=mxgraph.aws4.application_load_balancer;" vertex="1" parent="SZCZL3pSRK76lvEdMUhm-3">
          <mxGeometry x="250" y="156" width="38" height="38" as="geometry" />
        </mxCell>
        <mxCell id="SZCZL3pSRK76lvEdMUhm-60" value="" style="rounded=0;whiteSpace=wrap;html=1;fillColor=none;strokeColor=light-dark(#8d4fff, #ededed);strokeWidth=2;" vertex="1" parent="SZCZL3pSRK76lvEdMUhm-3">
          <mxGeometry x="211" y="156" width="339" height="60" as="geometry" />
        </mxCell>
        <mxCell id="SZCZL3pSRK76lvEdMUhm-61" value="" style="sketch=0;outlineConnect=0;fontColor=#232F3E;gradientColor=none;fillColor=#8C4FFF;strokeColor=none;dashed=0;verticalLabelPosition=bottom;verticalAlign=top;align=center;html=1;fontSize=12;fontStyle=0;aspect=fixed;pointerEvents=1;shape=mxgraph.aws4.application_load_balancer;" vertex="1" parent="SZCZL3pSRK76lvEdMUhm-3">
          <mxGeometry x="480" y="156" width="34" height="34" as="geometry" />
        </mxCell>
        <mxCell id="SZCZL3pSRK76lvEdMUhm-4" value="" style="rounded=1;whiteSpace=wrap;html=1;fillColor=#dae8fc;strokeColor=#6c8ebf;strokeWidth=2;" vertex="1" parent="SZCZL3pSRK76lvEdMUhm-2">
          <mxGeometry x="640" y="40" width="120" height="130" as="geometry" />
        </mxCell>
        <mxCell id="SZCZL3pSRK76lvEdMUhm-5" value="AWS Support" style="sketch=0;points=[[0,0,0],[0.25,0,0],[0.5,0,0],[0.75,0,0],[1,0,0],[0,1,0],[0.25,1,0],[0.5,1,0],[0.75,1,0],[1,1,0],[0,0.25,0],[0,0.5,0],[0,0.75,0],[1,0.25,0],[1,0.5,0],[1,0.75,0]];outlineConnect=0;fontColor=#232F3E;fillColor=#3333FF;strokeColor=#ffffff;dashed=0;verticalLabelPosition=bottom;verticalAlign=top;align=center;html=1;fontSize=12;fontStyle=0;aspect=fixed;shape=mxgraph.aws4.resourceIcon;resIcon=mxgraph.aws4.support;gradientColor=light-dark(#aea8ff, #121212);gradientDirection=east;" vertex="1" parent="SZCZL3pSRK76lvEdMUhm-2">
          <mxGeometry x="661" y="66" width="78" height="78" as="geometry" />
        </mxCell>
        <mxCell id="SZCZL3pSRK76lvEdMUhm-6" value="サポート" style="text;html=1;align=center;verticalAlign=middle;whiteSpace=wrap;rounded=0;" vertex="1" parent="SZCZL3pSRK76lvEdMUhm-2">
          <mxGeometry x="670" y="40" width="60" height="30" as="geometry" />
        </mxCell>
        <mxCell id="SZCZL3pSRK76lvEdMUhm-7" value="" style="rounded=1;whiteSpace=wrap;html=1;fillColor=#fad9d5;strokeColor=#ae4132;strokeWidth=2;" vertex="1" parent="SZCZL3pSRK76lvEdMUhm-2">
          <mxGeometry x="40" y="40" width="580" height="130" as="geometry" />
        </mxCell>
        <mxCell id="SZCZL3pSRK76lvEdMUhm-8" value="" style="rounded=1;whiteSpace=wrap;html=1;fillColor=#ffcc99;strokeColor=#36393d;strokeWidth=2;" vertex="1" parent="SZCZL3pSRK76lvEdMUhm-2">
          <mxGeometry x="40" y="180" width="440" height="130" as="geometry" />
        </mxCell>
        <mxCell id="SZCZL3pSRK76lvEdMUhm-16" value="" style="rounded=1;whiteSpace=wrap;html=1;fillColor=#cdeb8b;strokeColor=#36393d;strokeWidth=2;" vertex="1" parent="SZCZL3pSRK76lvEdMUhm-2">
          <mxGeometry x="490" y="180" width="270" height="130" as="geometry" />
        </mxCell>
        <mxCell id="SZCZL3pSRK76lvEdMUhm-17" value="AWS Config" style="sketch=0;points=[[0,0,0],[0.25,0,0],[0.5,0,0],[0.75,0,0],[1,0,0],[0,1,0],[0.25,1,0],[0.5,1,0],[0.75,1,0],[1,1,0],[0,0.25,0],[0,0.5,0],[0,0.75,0],[1,0.25,0],[1,0.5,0],[1,0.75,0]];points=[[0,0,0],[0.25,0,0],[0.5,0,0],[0.75,0,0],[1,0,0],[0,1,0],[0.25,1,0],[0.5,1,0],[0.75,1,0],[1,1,0],[0,0.25,0],[0,0.5,0],[0,0.75,0],[1,0.25,0],[1,0.5,0],[1,0.75,0]];outlineConnect=0;fontColor=#232F3E;fillColor=#E7157B;strokeColor=#ffffff;dashed=0;verticalLabelPosition=bottom;verticalAlign=top;align=center;html=1;fontSize=12;fontStyle=0;aspect=fixed;shape=mxgraph.aws4.resourceIcon;resIcon=mxgraph.aws4.config;gradientColor=light-dark(#f778b5, #ff81d9);gradientDirection=east;" vertex="1" parent="SZCZL3pSRK76lvEdMUhm-2">
          <mxGeometry x="60" y="66" width="78" height="78" as="geometry" />
        </mxCell>
        <mxCell id="SZCZL3pSRK76lvEdMUhm-18" value="AWS CloudTrail" style="sketch=0;points=[[0,0,0],[0.25,0,0],[0.5,0,0],[0.75,0,0],[1,0,0],[0,1,0],[0.25,1,0],[0.5,1,0],[0.75,1,0],[1,1,0],[0,0.25,0],[0,0.5,0],[0,0.75,0],[1,0.25,0],[1,0.5,0],[1,0.75,0]];points=[[0,0,0],[0.25,0,0],[0.5,0,0],[0.75,0,0],[1,0,0],[0,1,0],[0.25,1,0],[0.5,1,0],[0.75,1,0],[1,1,0],[0,0.25,0],[0,0.5,0],[0,0.75,0],[1,0.25,0],[1,0.5,0],[1,0.75,0]];outlineConnect=0;fontColor=#232F3E;fillColor=#E7157B;strokeColor=#ffffff;dashed=0;verticalLabelPosition=bottom;verticalAlign=top;align=center;html=1;fontSize=12;fontStyle=0;aspect=fixed;shape=mxgraph.aws4.resourceIcon;resIcon=mxgraph.aws4.cloudtrail;gradientColor=#F778B5;gradientDirection=east;" vertex="1" parent="SZCZL3pSRK76lvEdMUhm-2">
          <mxGeometry x="170" y="66" width="78" height="78" as="geometry" />
        </mxCell>
        <mxCell id="SZCZL3pSRK76lvEdMUhm-19" value="AWS Health" style="sketch=0;points=[[0,0,0],[0.25,0,0],[0.5,0,0],[0.75,0,0],[1,0,0],[0,1,0],[0.25,1,0],[0.5,1,0],[0.75,1,0],[1,1,0],[0,0.25,0],[0,0.5,0],[0,0.75,0],[1,0.25,0],[1,0.5,0],[1,0.75,0]];points=[[0,0,0],[0.25,0,0],[0.5,0,0],[0.75,0,0],[1,0,0],[0,1,0],[0.25,1,0],[0.5,1,0],[0.75,1,0],[1,1,0],[0,0.25,0],[0,0.5,0],[0,0.75,0],[1,0.25,0],[1,0.5,0],[1,0.75,0]];outlineConnect=0;fontColor=#232F3E;fillColor=#E7157B;strokeColor=#ffffff;dashed=0;verticalLabelPosition=bottom;verticalAlign=top;align=center;html=1;fontSize=12;fontStyle=0;aspect=fixed;shape=mxgraph.aws4.resourceIcon;resIcon=mxgraph.aws4.personal_health_dashboard;gradientColor=#F778B5;gradientDirection=east;" vertex="1" parent="SZCZL3pSRK76lvEdMUhm-2">
          <mxGeometry x="276" y="66" width="78" height="78" as="geometry" />
        </mxCell>
        <mxCell id="SZCZL3pSRK76lvEdMUhm-20" value="Amazon SNS" style="sketch=0;points=[[0,0,0],[0.25,0,0],[0.5,0,0],[0.75,0,0],[1,0,0],[0,1,0],[0.25,1,0],[0.5,1,0],[0.75,1,0],[1,1,0],[0,0.25,0],[0,0.5,0],[0,0.75,0],[1,0.25,0],[1,0.5,0],[1,0.75,0]];outlineConnect=0;fontColor=#232F3E;fillColor=#E7157B;strokeColor=#ffffff;dashed=0;verticalLabelPosition=bottom;verticalAlign=top;align=center;html=1;fontSize=12;fontStyle=0;aspect=fixed;shape=mxgraph.aws4.resourceIcon;resIcon=mxgraph.aws4.sns;gradientColor=#F778B5;gradientDirection=east;" vertex="1" parent="SZCZL3pSRK76lvEdMUhm-2">
          <mxGeometry x="381" y="66" width="78" height="78" as="geometry" />
        </mxCell>
        <mxCell id="SZCZL3pSRK76lvEdMUhm-21" value="Amazon CloudWatch" style="sketch=0;points=[[0,0,0],[0.25,0,0],[0.5,0,0],[0.75,0,0],[1,0,0],[0,1,0],[0.25,1,0],[0.5,1,0],[0.75,1,0],[1,1,0],[0,0.25,0],[0,0.5,0],[0,0.75,0],[1,0.25,0],[1,0.5,0],[1,0.75,0]];points=[[0,0,0],[0.25,0,0],[0.5,0,0],[0.75,0,0],[1,0,0],[0,1,0],[0.25,1,0],[0.5,1,0],[0.75,1,0],[1,1,0],[0,0.25,0],[0,0.5,0],[0,0.75,0],[1,0.25,0],[1,0.5,0],[1,0.75,0]];outlineConnect=0;fontColor=#232F3E;fillColor=#E7157B;strokeColor=#ffffff;dashed=0;verticalLabelPosition=bottom;verticalAlign=top;align=center;html=1;fontSize=12;fontStyle=0;aspect=fixed;shape=mxgraph.aws4.resourceIcon;resIcon=mxgraph.aws4.cloudwatch_2;gradientColor=#F778B5;gradientDirection=east;" vertex="1" parent="SZCZL3pSRK76lvEdMUhm-2">
          <mxGeometry x="506" y="66" width="78" height="78" as="geometry" />
        </mxCell>
        <mxCell id="SZCZL3pSRK76lvEdMUhm-22" value="" style="sketch=0;outlineConnect=0;fontColor=#232F3E;gradientColor=none;fillColor=#DD344C;strokeColor=none;dashed=0;verticalLabelPosition=bottom;verticalAlign=top;align=center;html=1;fontSize=12;fontStyle=0;aspect=fixed;pointerEvents=1;shape=mxgraph.aws4.mfa_token;" vertex="1" parent="SZCZL3pSRK76lvEdMUhm-2">
          <mxGeometry x="185" y="218" width="48" height="48" as="geometry" />
        </mxCell>
        <mxCell id="SZCZL3pSRK76lvEdMUhm-23" value="AWS FAF" style="sketch=0;points=[[0,0,0],[0.25,0,0],[0.5,0,0],[0.75,0,0],[1,0,0],[0,1,0],[0.25,1,0],[0.5,1,0],[0.75,1,0],[1,1,0],[0,0.25,0],[0,0.5,0],[0,0.75,0],[1,0.25,0],[1,0.5,0],[1,0.75,0]];outlineConnect=0;fontColor=#232F3E;fillColor=light-dark(#dd2a31, #ff7f93);strokeColor=#ffffff;dashed=0;verticalLabelPosition=bottom;verticalAlign=top;align=center;html=1;fontSize=12;fontStyle=0;aspect=fixed;shape=mxgraph.aws4.resourceIcon;resIcon=mxgraph.aws4.waf;gradientColor=none;gradientDirection=east;" vertex="1" parent="SZCZL3pSRK76lvEdMUhm-2">
          <mxGeometry x="390" y="206" width="78" height="78" as="geometry" />
        </mxCell>
        <mxCell id="SZCZL3pSRK76lvEdMUhm-24" value="AWS Certificate Manager" style="sketch=0;points=[[0,0,0],[0.25,0,0],[0.5,0,0],[0.75,0,0],[1,0,0],[0,1,0],[0.25,1,0],[0.5,1,0],[0.75,1,0],[1,1,0],[0,0.25,0],[0,0.5,0],[0,0.75,0],[1,0.25,0],[1,0.5,0],[1,0.75,0]];outlineConnect=0;fontColor=#232F3E;fillColor=light-dark(#dc2a31, #c95a1e);strokeColor=#ffffff;dashed=0;verticalLabelPosition=bottom;verticalAlign=top;align=center;html=1;fontSize=12;fontStyle=0;aspect=fixed;shape=mxgraph.aws4.resourceIcon;resIcon=mxgraph.aws4.certificate_manager_3;gradientColor=none;gradientDirection=east;" vertex="1" parent="SZCZL3pSRK76lvEdMUhm-2">
          <mxGeometry x="276" y="206" width="78" height="78" as="geometry" />
        </mxCell>
        <mxCell id="SZCZL3pSRK76lvEdMUhm-27" style="edgeStyle=orthogonalEdgeStyle;rounded=0;orthogonalLoop=1;jettySize=auto;html=1;strokeColor=light-dark(#dd2a31, #ededed);endArrow=none;startFill=0;strokeWidth=2;" edge="1" parent="SZCZL3pSRK76lvEdMUhm-2" source="SZCZL3pSRK76lvEdMUhm-25" target="SZCZL3pSRK76lvEdMUhm-22">
          <mxGeometry relative="1" as="geometry" />
        </mxCell>
        <mxCell id="SZCZL3pSRK76lvEdMUhm-25" value="AWS IAM" style="shape=image;verticalLabelPosition=bottom;labelBackgroundColor=none;verticalAlign=top;aspect=fixed;imageAspect=0;image=data:image/png,iVBORw0KGgoAAAANSUhEUgAAAIUAAACFCAYAAAB12js8AAAKsWlDQ1BJQ0MgUHJvZmlsZQAASImVlwdUU+kSgP97bzoJBAIRkBJqKIJ0AkgJoYXem42QBAglhkBQETuLK7iiiIiAuqJLEQXXAshaEAu2RUHB7oIsCupTLNiwvAscwu5757133uRM5juTufPPP/n/c+YCQGHwJJJ0mApAhjhbGu7ryYiNi2fgRwAMEFQxwIDHz5KwQ0MDASrT9u/yvg9AE/amxUSuf//9v4qyQJjFBwAKRTlRkMXPQPkYqp/5Emk2AMhh1G+wNFsywbdQVpWiBaI8PMHJU/xlghMnGUOdjIkM56BsCACBzONJkwEgW6F+Rg4/Gc1DnljLSiwQiVFeg7JbRsYSAcrtKJugMRKUJ/KzEv+SJ/lvORPlOXm8ZDlP7WVSCF6iLEk6b/n/2Y7/LRnpsuk1mKiSU6R+4ailoz37M21JgJzFicEh0ywSTMZPcorML2qa+Vmc+GnOSo/gTrOA5xUgz5MeHDjNSSIfeYwomxs5zcIs74hpli4Jl6+bJOWwp5knnalBlhYl96cIufL8uSmRMdOcI4oOlteWFhEwE8OR+6WycPlehGJfz5l1feR9yMj6y95FXPmz2SmRfvI+8GbqF4rZMzmzYuW1CYRe3jMxUfJ4SbanfC1Jeqg8XpjuK/dn5UTIn81GD+fMs6HyHqby/EOnGXgBbxCIfhggAtgAO1StAVpttnBZ9sRmOEsky6Wi5JRsBhu9cUIGV8y3nMOwsbKxB2Di/k4dj7d3Ju8lRCfM+Hh5AFhP9PjJjE+M9uQ0+p8p9c34mGQAqOjZ6Mjky6Q5Uz7MxBcWkIASUAUaQAcYABNggdbmAFyAB1qxPwgBkSAOLAJ8kAIygBQsBXlgLSgARWAL2A4qwB6wD9SBQ+AIaAEnwVlwEVwFN0AvuA/6wRB4DkbBezAOQRAeokA0SAPShYwgc8gGYkFukDcUCIVDcVAClAyJIRmUB62HiqASqALaC9VDv0InoLPQZagbugsNQCPQG+gzjMBkWBXWho3huTALZsMBcCS8EE6GM+FcOB/eDJfD1fBBuBk+C1+Fe+F++Dk8hgBEAaEjeogFwkI4SAgSjyQhUmQVUoiUIdVII9KGdCI3kX7kBfIJg8PQMAyMBcYF44eJwvAxmZhVmE2YCkwdphlzHnMTM4AZxXzDUrBaWHOsM5aLjcUmY5diC7Bl2BrscewFbC92CPseh8PRcUycI84PF4dLxa3AbcLtwjXh2nHduEHcGB6P18Cb413xIXgePhtfgN+JP4g/g+/BD+E/EhQIugQbgg8hniAmrCOUEQ4QThN6CE8J40Qq0YjoTAwhCojLicXE/cQ24nXiEHGcpExiklxJkaRU0lpSOamRdIH0gPRWQUFBX8FJIUxBpLBGoVzhsMIlhQGFT2QVshmZQ15AlpE3k2vJ7eS75LcUCsWY4kGJp2RTNlPqKecojygfFWmKlopcRYHiasVKxWbFHsWXSkQlIyW20iKlXKUypaNK15VeUIlUYyqHyqOuolZST1BvU8eUacrWyiHKGcqblA8oX1YeVsGrGKt4qwhU8lX2qZxTGaQhNAMah8anraftp12gDaniVJmqXNVU1SLVQ6pdqqNqKmp2atFqy9Qq1U6p9dMRujGdS0+nF9OP0Pvon2dpz2LPEs7aOKtxVs+sD+qz1T3UheqF6k3qveqfNRga3hppGls1WjQeamI0zTTDNJdq7ta8oPlitupsl9n82YWzj8y+pwVrmWmFa63Q2qd1TWtMW0fbV1uivVP7nPYLHbqOh06qTqnOaZ0RXZqum65It1T3jO4zhhqDzUhnlDPOM0b1tPT89GR6e/W69Mb1mfpR+uv0m/QfGpAMWAZJBqUGHQajhrqGQYZ5hg2G94yIRiyjFKMdRp1GH4yZxjHGG4xbjIeZ6kwuM5fZwHxgQjFxN8k0qTa5ZYozZZmmme4yvWEGm9mbpZhVml03h80dzEXmu8y752DnOM0Rz6mec9uCbMG2yLFosBiwpFsGWq6zbLF8OddwbvzcrXM7536zsrdKt9pvdd9axdrfep11m/UbGzMbvk2lzS1biq2P7WrbVtvXduZ2QrvddnfsafZB9hvsO+y/Ojg6SB0aHUYcDR0THKscb7NUWaGsTaxLTlgnT6fVTiedPjk7OGc7H3F+5WLhkuZywGV4HnOecN7+eYOu+q48172u/W4MtwS3n9363fXcee7V7o89DDwEHjUeT9mm7FT2QfZLTytPqedxzw8cZ85KTrsX4uXrVejV5a3iHeVd4f3IR98n2afBZ9TX3neFb7sf1i/Ab6vfba42l8+t5476O/qv9D8fQA6ICKgIeBxoFigNbAuCg/yDtgU9CDYKFge3hIAQbsi2kIehzNDM0N/CcGGhYZVhT8Ktw/PCOyNoEYsjDkS8j/SMLI68H2USJYvqiFaKXhBdH/0hxiumJKY/dm7sytircZpxorjWeHx8dHxN/Nh87/nb5w8tsF9QsKBvIXPhsoWXF2kuSl90arHSYt7iownYhJiEAwlfeCG8at5YIjexKnGUz+Hv4D8XeAhKBSNCV2GJ8GmSa1JJ0nCya/K25JEU95SylBcijqhC9DrVL3VP6oe0kLTatO/pMelNGYSMhIwTYhVxmvj8Ep0ly5Z0S8wlBZL+TOfM7Zmj0gBpTRaUtTCrNVsVHZSuyUxkP8gGctxyKnM+Lo1eenSZ8jLxsmvLzZZvXP401yf3lxWYFfwVHXl6eWvzBlayV+5dBa1KXNWx2mB1/uqhNb5r6taS1qat/X2d1bqSde/Wx6xvy9fOX5M/+IPvDw0FigXSgtsbXDbs+RHzo+jHro22G3du/FYoKLxSZFVUVvRlE3/TlZ+sfyr/6fvmpM1dxQ7Fu7fgtoi39G1131pXolySWzK4LWhbcymjtLD03fbF2y+X2ZXt2UHaIdvRXx5Y3rrTcOeWnV8qUip6Kz0rm6q0qjZWfdgl2NWz22N34x7tPUV7Pv8s+vnOXt+9zdXG1WX7cPty9j3ZH72/8xfWL/U1mjVFNV9rxbX9deF15+sd6+sPaB0oboAbZA0jBxccvHHI61Bro0Xj3iZ6U9FhcFh2+NmvCb/2HQk40nGUdbTxmNGxquO044XNUPPy5tGWlJb+1rjW7hP+JzraXNqO/2b5W+1JvZOVp9ROFZ8mnc4//f1M7pmxdkn7i7PJZwc7FnfcPxd77tb5sPNdFwIuXLroc/FcJ7vzzCXXSycvO18+cYV1peWqw9Xma/bXjv9u//vxLoeu5uuO11tvON1o657XfbrHvefsTa+bF29xb13tDe7t7ovqu3N7we3+O4I7w3fT776+l3Nv/P6aB9gHhQ+pD8seaT2q/sP0j6Z+h/5TA14D1x5HPL4/yB98/mfWn1+G8p9QnpQ91X1aP2wzfHLEZ+TGs/nPhp5Lno+/KPiH8j+qXpq8PPbK49W10djRodfS19/fbHqr8bb2nd27jrHQsUfvM96Pfyj8qPGx7hPrU+fnmM9Px5d+wX8p/2r6te1bwLcH3zO+f5fwpLzJUQBBFU5KAuBNLQCUOABoNwAgzZ+arycFmnonmCTwn3hqBp8UBwBq2wGIQjVyDQBVHgAYo1YJtaGoRnoA2NZWrtOz8OTcPiHUg+jbySuOY1jgg3PTKWdkaqb/S93/aoE869/sPwFOjgp+cnH84AAAAFZlWElmTU0AKgAAAAgAAYdpAAQAAAABAAAAGgAAAAAAA5KGAAcAAAASAAAARKACAAQAAAABAAAAhaADAAQAAAABAAAAhQAAAABBU0NJSQAAAFNjcmVlbnNob3S8f4cwAAAB1mlUWHRYTUw6Y29tLmFkb2JlLnhtcAAAAAAAPHg6eG1wbWV0YSB4bWxuczp4PSJhZG9iZTpuczptZXRhLyIgeDp4bXB0az0iWE1QIENvcmUgNi4wLjAiPgogICA8cmRmOlJERiB4bWxuczpyZGY9Imh0dHA6Ly93d3cudzMub3JnLzE5OTkvMDIvMjItcmRmLXN5bnRheC1ucyMiPgogICAgICA8cmRmOkRlc2NyaXB0aW9uIHJkZjphYm91dD0iIgogICAgICAgICAgICB4bWxuczpleGlmPSJodHRwOi8vbnMuYWRvYmUuY29tL2V4aWYvMS4wLyI+CiAgICAgICAgIDxleGlmOlBpeGVsWURpbWVuc2lvbj4xMzM8L2V4aWY6UGl4ZWxZRGltZW5zaW9uPgogICAgICAgICA8ZXhpZjpQaXhlbFhEaW1lbnNpb24+MTMzPC9leGlmOlBpeGVsWERpbWVuc2lvbj4KICAgICAgICAgPGV4aWY6VXNlckNvbW1lbnQ+U2NyZWVuc2hvdDwvZXhpZjpVc2VyQ29tbWVudD4KICAgICAgPC9yZGY6RGVzY3JpcHRpb24+CiAgIDwvcmRmOlJERj4KPC94OnhtcG1ldGE+Cr3MtGoAADsESURBVHgB7X17rG7pXda79z5nzsyZ6UwvQ4stFAzYhksRCQaQi03DtUELoQgigqIJFqMFQaSaKqZCECKXP4AETJQQiC0o1GCDNaEQrQKp1AYUTaFcWiiUMp3pXM7MnLP39nme3/V91/r2OUOHwh+sOXut3+X5Pb/nfdf7rW993/6+PUe/97GffD64HfEfdm07mt05LzzBaVS1F6o8OZy9+apO37imnnB6+mhKRmtHTAc43e96tk1Hp60eReCWNeQ+AjDC3BiZUMPUQ6/PmbkTuDUwqDCxy+YMeF2UTzkviFhgVNadxuMlx34cA0vjnLu2nc/unBee4DSq2gtZ3jlmn56qdYydRd1DcffPO1lAAuHAxHe/62HdDo/TIRUMRRCRUFuQpi9BVRecOmae3uRs9WSDLXTWfhMetdrR0/mJWfTUovBcTYrQswaVNyEw6WlqvFFme2MFM2OcEcOxoOaUT/Kqo6JJH1MskQqzhdn4KmSqtsZLs7mth/ee8hZLPAxHSYs5jLAo2q0+05k00EX+Ap1rkXR6EZHnEFfn2eAqeTxNso+hDTP7eMr8Gm0bOFLF63ALaF+7TrVXpHwf16px1WeE3jwPaVQ/J/XMdvIKuV0YLbcZKHiTc8LBWRPd74Nk3ep3rl63wXpyxUz1t4BxsbpScNKniUf95O/onaaBeGK49wmib0FZMmtn1ZoDB9KWzzorbD5zxhNpaZZjcNVbAytX2GvIbTASqWr1GRSHpQ2TPb0GhwyBccLDyVIacjyyJtKPpmpnu07abWZ7nfwecDtCa23HB6bHaGs7H8e90TTxAPRa4tmnb20aZvCCi0KFuVvzIt0N9nagmTpuBYnaefIw88rbDGTG9KY1J3sYiyXdqq+Pay2f/Mnp7bf2Cs3mDbpiWirOxXQOFg67p2gkNQlg4iCXgsUFt/2nvuAhlU4da2UrkycwW4nIMQmED7t6rD4Jk0HE00JxHmOdmlOU/aiKtvFkuPE2U+iaA6/BoTAVc7CNn46l3GCREDs+Qz0fvhcol8WNx/lSzA4mc47thwZvAxrH2wnsVWYnxlMX9amBA9ybstYL5/Ds7RR51zpMC6HxFoIszosDra3P4NK7+c0U7bowei/r0Oi8pxXOyJCV0UlCL0xEGV3UVAdI5loizMw5Ff2IBYYpj9k9RSh1QE1AkBDfq7PeAfCDQ+T0y6Cd1c4jP4OWrxZgazmxw59ik8NcU+C1GVl9abOeQZrtxGve0kI9rLTyhamYMKsepQ3TJqPTdVVu41ANHOsc9JqpZGKZWHplTkjbRazzIJYvSTcTGAUTR6/e0RtCWAOoodOorHMrXzt1qrbbhSFaI3VsczZJQdDTMXmAQTt92uZ4KHMrpfmBimOHO0+kwBsma23zSCZWH6iaBC9J8NZfUptaVgRm5VVu23++0YzqwHFQC9HWN52xn6YBPEaVRnTIgTNvLWQZjRUxs4zREplW7dSRFcbBfZpu5CETwsrzcdLuvmgyKHibE0+owHLRNKcNRqZXY/LhpE8R3dnxox2PC7RqmfBkYFZe1c8Y3FPM/XMIQaJ8c3Z9MteWHAyh1KrTCJlrYyew6tIOf2pvPFOsO0yvvmQ4SR6MJ8Qo3Ouk3cE2DNdnh6kH8wVNdMZgZHo10icvnO4nAXPY6Ees28oJUbvAKeKkwb3Wqr4wePqgM098DiFIqlVaa2rSYIyJrbGiyguz3gvlZ9BL05/17WpeBEwnjTy9gfPaOOGkT5w5HkqfipTKBP1wvCZcgp20IDmrlhLWC6a6LBWLmq55y1Q+/BWXzQk40CtqBTFMe/qYJz6HEFxoUJPAHotvod4CMppKmOalUVkXrzx3qy9W9stU9nGoIbojmkmB+mVEzUITwUapQ+/PcON1mIGViogdCY1It1SAZPYvBrI0KKu7T2Ax0ttMRNO3Qrv25Ak6iQ1HzOJe3qeA5IbJAfRYB1DfomJJz3nwkEo1zpnUXmh5H3hUF8iVx8HQvee0cAmbkvS9v3Lc7fkMWtNqnZalyoUfjh/DDXb4HZJpGuksNmunXHeYXLZsgPgK7blIrphGp/cp+kkiY+fIk36IBPGaFGPu9YwkhzkGojjnTOpWqFjPF0j6GtT56kA9CUd49YlMRPZIQ0TyvAnt8g1ne0ENn4I8PwGWmPRNgOiQc2IGMB2WPbzvRX6vI3zFKtZ4Wn5+SZpEmLK0qcudOPRk8raCHQ3J4WKIVsy5snrDnUibIAENXVDqTQZTdJFvlNtxaZxIOpUOjcd8o9cwGHCs+eHYkaURCSvpei5BbqTvvbqfBJHrSeppfjOFzhwTnlwxyNg9ReZhJIgTLSrji0RgkVxPxNavelpaBBEKHksomu28sXzuGjYxHpw0Ijn7hVYbalan2mXEE5nvfic1oiRIvEdqDoqgMGUJLj2FM3H08ZPQ1Wc6k9b1In+BzrWeDAx58KOXpCbQ+RdBvd86gayoSfD6XqC8xWNPjpVHvteFvhBPXzHlPVtB0VbLTEQ76fMqixXYiJHc1cOuXqjDAX0kZWqiTYeVTPY8unVfaez2tiksYKFEUu4kgOHUQLvh1lwkG0ZXivTdsJNURDN/ggqwWNuFsgC62+m6TUxv3GoIc2ha5VtZ91ce6pvyYvHIfMhGCruerD2gj1LXOVCMO23GkOVwi3PGVGIqLScLEUrCSLdkM5VdsQw6ZvPmVSSsMJC2uhVTrVfHAQ3WSdj6UW3H6bSkYBgutkJmac9dG4zMSOBYKTrdpz11VFKllLMa7mdF5qt/hqpp609S6+lWHgpuDOlLXzY2fAirZmRteglb/CQMiixe6lgaOR7dxsHfvLJ8QEjHCdGktGByeJ644JLZAUq1Yvqza/ws5IZcpt0o3yzuV0u12iXaQ6vP4iXWfaSYXRdC9y1fPMnWeJopHfXgSLTitrNY1sBN1Gqk7+WTPzk3HWcTsGCNx1992NC7uFIHCmG5A84O4u0TNjUKB9ialAjOx+RgmHil03CfOcsIRlOuV2fK9YlDyF6m6KpnuoI0HgMHkTfMPOKuxzPuG6BJXXru5ZcYinNOLMVmJmTy4aRfegx4E7/XsWARbE8fYjLk2dpLEudg51wHsE66ejb17L9oUAdJMLCjq2f2WwtdN/OV2l8YlSc2Ga1t97OtY9zPiu73OtduhF1PtAgGO86lkfNq7yEvU26kX1i39ppmamNseCIQH8cLP05H+Dy6rZMv24IaVM+xa/hIumla4KwnYp4UlrYK4lWZRmW9kPmugfDi3C6MOU/s1NF968pm4o+uGbZohMkZTT3jvhWUHiHVwy0dmDck3UWz9HmWB5nNNwZLeNhC3WG6+WrYfVXUzrH15hWwBrf9esVgpabxAGdOceQ5qC6I9Ru/9CR/hMBjVGm4L6JAWUy8jrYDQdN8BFsW0qDGHuiO24lI3wvgM6TwMq5OukllYCUkr2nuEEd5U8PImRJwup8EXnaR3+tErw/ZMOoZHMzyvYcVdFuTJJs7G0SVJ8jVALEI2voJlZEngR7ojDGNaEXiudCr+4HVM4z+Urf4zKcGh66+qVo0OQ9LVCbfCJpp8hzrSGk0JNOtRm52j5RjgKsii3U/e5AE20V+rwMU3/tQCavCCFnypyuGQyQz4U20WBKUfKuxnpjSYMiJEXTGmEYp9ULlDVQKus/S9GebHW0hWG/tGzaapSZysSbgbujQmzCfoMlUZc1BERTcrKSDkbk0XMDkw+k+CVbfy1xEeQ2np49sTgYm/RCMlbdcMiURRKfNKnfi0JNeXJNigRWSHEyDx6hopDUVKmopxWkWZ0t4VguhhwtsCPiZFhk1eCQPnlCFa2z6BGu8NJsL24kab0ScrfDAZo6GHI9kogtxu6oskD0D24rdvJSlHjg6ooEvoPohDF4x+F1VfTUV9rlw8M8reA5beTBEHobqagKMnn2pL/D06R2xsX8pNqZBrOrpKB8YQkbgPPI9ZMhQzy7BFhlr0+eI9bOewtKSOoxbGG+29lw5LM+azlx2qQKG40ZBcLKEyNK4sMM9irvCdh6kOn0niC8aM6mJLw2TD04sipBgIMNb88q4j0PnVnM1wY4DuHxpXPnUvzCO774rU0ep2kJNSmLSYHJpEPj6NrihuciOjmNGLLZiijdYMjIZx0vP6fwBOZ9QBab6cA71PxRn3aGc4gdkZxhzcP6b7xjnb/2VcXx2ZqeykvDhhH/RQogB+PHSiq08VoCT+pLgEIauGLIMGVeEI2i656tfNm77ws8fR5fyAlR0f2I9wRmIs3lRGR4Y7/q9Mf7Ft4zxq28DEDV2sryozqEC68mmz40Pimbr7BnWASCuWidFna0PYnSBZ/tpO8ej9vILP20c3X77FP8T5w95Bu59xjh65gf4orDzMy8M9PewlOjk4+ytJzBkIp8P6VoIli2/GvWFsV4xNk0ee2ycP/JItHpSj7qcr5f8J7XDH0OyHK+fj7ufYo9wTjxOzHy+oN+v8rYius+x9VVClz4273Gpp424InOjvrQMU0jj7Ptrr3v9ePBV34qQ3WTFDdXxco/BmkPPq8od976M4HV0TpD5sd/eYzCzrc9+B3iOl55iaFjzs2vMZQT8eDSWW55JS2noZajpcnsj9KerOQfx8Wt+cIy77N6NMW1hBMd6grqvhQBgYIMDx0tcJcL6oGthELWsQK5ICzOjfFwxTC6TviFxduNUOEOagLOBmw9s9mg3bO9vEeRDj8GniWdouvmLgZ2eKoMk/5lWEjqXYNhxmSqcOzMcNs5Jww4Gm3gYqjkwQPlW5/TgcYLpAAf/bE7UJnYq4wM8tpgDG43DeIIuXw6IH6VgJ9YbOSavIISnCqu1k9++NsiAb81UpPwgTqTlua/ySCIWQV9MlTEr0msc/vQSdi/fG+7w7IQ2LLeC6UXtfO2ON/nciKtjl9oLBcuinrGuNQcG0nTGSu3CYBObVKuRvhd1P89R5Np3SRkqEbQVYZSGfLd2/CZI2bZrPL1/VhipDaoD1NOTskNTcZOj8xAtPzgD6rzK107ZaolK5LzUmCrp2Oy29b0wEZNvxAwpvPDaZFvBNmXxVBauFPguYihe+1sdAIGR0X2KyqQI25eBokEBFuxC7Pg4VFlE6thztN3fDoD6OnjPL9qNlaUwsoejFt5eW6mqi3zlDvAA0NsSlZFMWNQZ7ODECZFh3tqz5iTRE9XkALLfH6ipXMAqbU3tb141MM0SQZt1BahaxPjPDhOGFdxYRYESSccs7Gs7OICC4LkZT/JoxBvJk9uvjPN77hkn99w9ju+4Xe+J8GnynG/ekNn+pU2a7Ofi5deOkA7yMVuYCY0xSRBxnkAQkGk3MgKfIYXdKF/RTS15ty0M60zZOg2ks4Z2JFYjfQd0nwT45+9TYMLX5yoCPGZmVC83n9NdUyixIydPz8PxZEwKf3s83xLnCcV/unFUnoOzXuc3bozj224bt3/MR45Ln/QJ4+QFHz1OnvOButHiAjl/9NEx7rt/PP6/f3nceNMvjNM3v2WcPvRILhTdyfiNlVOTXOOSrzb0qQEKFKR2LoS60aSvaItpbH3OwGutRCZOqyvfxkl6xPBPW9ND/0i+rJAqGHebnpVJK41b0BPjmvRgrPU+BV4taIyxEMgO4lgsrr339DWTM5m5jQFIvvOZE5JLQfD0OBjM2KXnPmdcedGnjds/69PHyYd/GBaCS20nQvOK1O0f/+fG+NIvGue/9c5x4w0/M669/g3jxq/+2hinN8Ck5n7i41whBh7stdlicAUMihg+tdKNEwi7z8PmJGUtgRwzq7Xc5JM3IZkHfye1EtcAPHBzf/LNGzlNPfGWVY33cBnOSXQX4lweppeLgo4EUHZT0QduAlnNbb5ibKUaKvetaZ+Z9YoxLl0ed/2Vl4wrX/zScfJBzxnj5CQp0qAQbqGTR7y1fvQhHzwuf9mXjJMXf9a4/rr/PK59378ZZ48+bu8XqL8tBJskBLxeKd/pFMpmgzToYKPPTQyyOD/kiYj5RCCS5W4c9EHlPIRwu9kVw1B7e2vidOK1x+EBPdbMiAw48OaVr2TnFxlHExOO+HZhOFi5gMZwKkdL72NAjyYNkINXDDQ+espTxlO++qvG7S99SZCK7PxRvDv6nveM83f+7jj9nd8dZ+++z64C9947Tp517zh69p8ax09/2ji64w68s4U3dvC275Uv/2vj5KM/alz7pm8bN97+DvHE04NNG0I5c0r7zh9zOQXbKwbLuOUUrTzZACDY6xVj3wffBTxTKgRIRe2qbVnKuoY4B3kyzCgCWsDqSrG7MMRQ+O3CYGNufsUwJ/fEqybywed61dNXJk/OEd62vfsbXzGuvPBTa7Zx83jj5940HvmJnxw33vJL4+i++8bpNdxHxKTg7b/jK1fG0VPvGbc9/8PHlc940Tjh71/uvCqOS3hauQOc1175qnEDTy2aA/XfXjE0Guwk01cP29iJV1GOTTMHr993cKwXXjGIB2+/gti8K6HG6uI8tLltrhgW3u69IKaUGrs+zpnlMMIiZ4fFb08fJjDOHHC6x4BfIfBiUP7wcO0lLhpFhABtPPpvV4POQpSNQSOIp4i7Xva3xpVPfyGg1vAMv/179Lu/bzz82tfhcoNXFrgCcFP/eIiC5/yxx8f57wL7O+8a137qv40rn/IJ485//A/H8bNxQ4qaS3/2BeOOf/Q146Gve+U4v/64cWR/H14bjFK141y6JJtk0yCa7Q7gc2jLKUNtnSSD5zyrh50P4btfTaPIhTb8pjsJsE0NF83S4wvT0CzATypWdHqfgoL7ptVPgW1TzH1LMT9jGtwzlp+ovIQvJW97wUeO2z/nM2z2ET99x2+NB77hn42H/sNPgBqB9vuS3p990ufJuHQyHn/jz4/7v+prcPw5qwWGr1zu+MLPM36JA6eLcRnpK507z/IgM9GO4KQvsR0/53XlyVJPuK9D01e+A1JfGT3D0vLNSlnKeTZBNJQQof19iqxgKpECKDWHpomI0jiWzLKs3Pa8x0gsbQTuxD3E0TOebv0eeGC85+9+7bj+s2/ib75KjZUXabOmE3OCdf6O3x7XvvU7dB8iGK8Yf+mzx3jqU/vYZTOf1C5MfgWVTxceYTkG1ldS7ahnChHfIsylrxx9bu6YBdeiSnk6kBkLI6FuFBUQFks65QoXFDoiXB9dcgwTKdjR06R7rAvOZpHrdeRNbjPCJe/JBz5zXP6UT7IKXDUe/Y+vGzd+5dfGefugTurxQk360nTVePr23xoPf9f34rKj326N42c9a1z60x8C2SCxfzbO4Aztzquw5yKlcRxILHLQYymGmxE31nFNfcJpelRGniQykI0dbJnIBtXTrQ5JGhpyLJJPHxQYE8ZWKdj66hHtvIqIJztQqBE6vB0sXmnzecXgS5PbP+xDxxHeneR2js9gPP7Gn/WP2VEPg0qVHveFt1TuuwY+tz/++p8aZ1gc3HjzefShz/V3PhHovC4uqZtvJjM2I4mhD8ehlodTPnOFBkBgYxHcQiVEVnYhd8Aaj2LNF0nbVU/v7TwGsViWw0g9BCgdvxDz+sYtcypgTbI15F6spc10MRkPcRBwL5424r2I6zfGKV529q1LSz0R3OmdGrEozh5+BC9f3210fArB4jvyK4eCwUPH7Qx17gwaVWCzyMNxmEq7QwC4km413F/D4m08cbMf/SxfXs5BdEpCYiZn1uMUu3+0RKQpcCbhPUA1tRbdL2lm1VjAY/9clvGendT7Z+Q5u34deQcKyX41lnVhsGbtnz4XAN7VjO3IP8GSHEykJhpsZGMyo3xL0bdqh5pfpV5NTWLQThrLVZ/UwFpVeUEeLFr6CEKM/zo5eS286cmUktyrTgHFJh9O14N7ijkQZf2YBRFEAwq51a3GEOqtcsO7ErYezZwGECXrRK1+4OI49Z7JBclQibcxZ8Im2vhaMBqsx87DHEqyyo3UlP5K4oV74Z1YzUF2aiiLpSy4gWr3FB70DAWKtPmNUblqitpk7yjaRlDp1V/xVqL+rBWcO+pJOnpW6Ac6qwZe1S7asoeKrZV4XWxWN1+xJsRT7C59s2+x0LDqY4H6eX8OafKNlQOTOPZW/yDMY0XVv9w2J1YtqsyboRpyweB/9upDuUQe6lyCQ0wriVAcmVpPSjY/MLSo1bFzd7uB1glsKaNY6s5O8WHAixZKx7utA3cxm7Lp78UQTBztjqHDtB3lKGCw8jGq5LBoVqSR6DIa7wrb9ERVYczKcrj1wV3m8DasDnyHywwcYOCf3qdTeH5HTCce8d2bHzZnrd42pn5/S1xvoBkvo+tmNYgS4rX2TTRfBnzXDhvuJaVveuvYiw0h2GaX/J4ha74PqZ5Sav3xlYXLH/cx46jd+5AbsHw9Tx3bDcEeR9Mz/Ob2FO++qhBFmUZO74Teeec4+cjn54332S/98hgPPyye1MjGy8YQf3bfEvcmXBh2jpwAc6ga5WX5ucrffbh+yxmYjd2n2bcUGEHiLtg2JwH4/Yk0kqltd7pNqPupJ/KcZFHZ3ljn/UYTKvI0oSzeLb6MN9WufvM34iXtnTPBE/XQ8Pp3fc84/aFXj4HPiOQZCB4K+pAPGpdf9UrrBf+xr33FOMPvfo746gwnz8YZBdsjR6vHkO1iehJYCyNDDaNqyZruKQRlTu1l0PQwJLkdCMv4vienhDmWLgL6eyV2qcOjivngkc0piSAz8gJRXhZl6qCx9p8YvdUZf+/CM8JV/D7/zFI41kkunt6mXjsvnzXyrfAkFl8j3UAzICZNcsHNavcU80lglwSn4UH3lyGlsDIATBFhstgIWH8RRyuNEqP2/gwK435yZb6UHLKmHlLWipt5qP6JxjeUXQDeoq/nFDDH+zc+X3HoczpPjKlRjzYxvQUR9sAzrPaTKHzyihM5PScDVU8zmbXeuCyxPi+zsBtC/OsuBMY9BwXe7KnDetieVww9QEkMe77HsGC78Jcelh/Y1svoqqmP6ezdvz8e+oqX4T7gGDo0MxPrMeLcdlITjs7p79+HX9pdznMaNakHb+8/9pV/P8nO8NkRfkHbhtLO08JMveJgPEhps9Alb8aIQN1j2L0esYTjy0A20be+MNgLhH6zRxb6ehKmkNjQlEJya6rM7MlE2RicLn4dNn8uAFjvuftnECIH0Prqp7pALkT0k9zkCaYxkuPx6/hdzNsUKzynziZQv1mh6yfDMkpP/MLzzTPhbOx9XNQz8JnT87f9uhVjrzfbiCdcxFaXgMUQzAcSyM3NZxNYc+Bo3nwin08fOrFsEvloKJ/ZOZF+4G5yZLUGTtGyo1WpLIuAyAu+c4/heZdFT6b7qTjz4OmPImnoSTDMrhgV4q/u+YhFPX/Ew9/g8iTHifb4lG9Y+40vatYezbdezs9eCGTa7fRtWjZ75TdNCrZJbQL+6kMlbIqnh8NXDJv2OW9KGTu35VXdaVFhO9NHeM686zNfNG772I8Rjovktufjk7ecPG74yP5df+crxtkDD8plNMp1YQLf5Le8CpYdrxQnz/1gi6LH5U/+RHz9El/M5YnEdopH5TV8qqv/PoRzFHKssA0iTRiyMW6AxNYKFfOdZrRAgTbqPOUxKtA6T0bgc+w576g8+FaL97HW2HNheadbv2LgQ9NtLBrozRdGTMKB8bkIHuzKIG3a3fkJHz+e9u3f7AEHtjNwhJdqd3ze57KwsbyPZuO/hMXIT2Llhj7Hp9fHgz/2unESnxZHcpoT+vhPJ4WFkKYFCtNf+Wni14VBqG1WTZBJge8EIW3ttyPAF0ZQbueHc20atIJM00rMsni5Sj2k045jRr0E+TuarM0NNoehbT5oQih4myfQwUlUhvjZFJ+21sywefwUrKzIPRnHYjWrc+Im8eQFHzWO8LJTC7hhN3PCceePTwXGzEcgsfYDgy9hGSMXd2kYxlpYotfxnVbdA+F4xEuBXp4aWntxiqwF3fSwHbDvPptg415W7QKmvDCOxa8ooygfCwodvGI4BYedlzSc43VSs1Pgrc0cfhBPE3vxGfW+ef5IKBIErt7RXu5Vph4tFuMc8Wbv0t1444qL6cC28yWEMfjZUXwUgJs9ODlQu08QFV+18DMe7aOGxBIVU3LMG098ISpvcJGw80Lk/mZdkHNDBw3E9JuPfLtikCmGxzlov7d2nhg7qg8ujN6QjO7TvOUNb8y883NeOs7e+5Apir4LgR7Y0tIT+BT3CQusKG5nKIM/9HlkOiddUP7NiONx97d/07gNn9vc29aFcfysZ46n/OD32yfE9woOxB79tu8cj/34f4KYUNeAEHf8nOeMq9/z7foUe8tM5jW8o3n+pjfPC1gDm2DlMIdxbh6wDF+wMIrArFoUnmm1mtmLF0a2X3nTvwhxiu9znOHHTp6dYBbGqmVC48yUGzjwvT/bFozndBWDbXPoV0H6x3hc4+9mXLStC0NvS+OrBE9ow2Lg0wEvBNKAXfwOiNfYMy4Wvt19iBcngguY46QeTgrk727Ms4fybti8I2h3qZZvJ1ew2unpj+Sc+3ajSQQ3n2RzNKKbLwxWHZJMCn+qCc6dYz8RTbuQ5eeIfQaMqJTDd4gVYu+yetiqaq96NMnLNFKmR4b9UooinsAWTx2a7VjlQQFNR+c43fxlFxfH3tQRq8UbA0AAPEGxkQJ9zOk8mFGQ7tdkGr7nvEL3FP1NFF8FVhBiUXjhwgDZOmf0tcLZCDyUvGJ0SbNOkrNdGFTMDZPhZvydT/ngjWma7uhdryr1SLFiYvQ+gji3u96fWfa4gXc0H/jKl+vk2aKJSQFA/bc8RJzh3cvBt625kaidUGo+/+13jmsv/3rw7t6RqOzsXe9SXXTM+VR2Z+fjjoVhL3L4gMSmsVvN9qmE+pizefanD54wUEV3P1E+FmNaGpIEIeMyxGZ/K/kNSWvaTOOGwJO78Ovlpz11nOIRdvTgQ+PG/ffb3brrIZDDOL7nqeMY3xyrMRnF+W34Rhm/Xtg2LYbmTyY/N4q/Vdm3lXO6SqI5+2vvmuT3wXAu8bHDG423OPt5MJ5eygjndbNNQZ/5+TCfsD1Sv/msz1Og1R/OwoAy/JsmLkaEmaBuPpLi0r3xWUux+J3B3fhCzx2f9+Jxwj8RyOfb+96jL/08+P3/dpy+F69kyIfFjReY487P/9xx15d/ic5NtNMRmCP/A2IZZ1P+8CRysmjWWVJs9tVKOO4wczU+lOcjVJw2xr4w1AG7uMdgY50jkmGsHINMK5I9nRuARa2M7dKHQZs8mnNPmEbEwe30efMpvJWoTlcKr2OFBLX5QMyamExzDj6VCP0H2KWqVqtZsq4c3jP+3t8eV//GX8fNWf0RMH6R+NLz/8y4jO9z3PeKf46/TYFXMrHhwzFHz3gaBpnKI7NzdAE1ETsLoRYuCZo88dmke6/GE2cvQ73Q22J4zgG5i2WZnT15YqMJnye7P/hSkzf3Q1SZtK6HGYD8Sc9OvKG5MKKOBn74L2MR8gAPa17lLS/ILkhI7vgIjUepfI+x8d2f+1lYEF86LQhitOGkX/7UTxpX/+oX4DU9X1V4X0/f6oETqK2Vdz3MbX0riT05Og+p5PvkJXXzFZNv2TJRiZBDjQlO+dEVRywG4/F+TDHAesuYr5CCzWdQ1VHC35IisHk0sTnWnK9glGmboOSOS5RlHdUOMQL2XLiI0g1PJ93B8U8Y3f6SF9vLN9ScP/TweOhb/tW48RtvH3e/8hvGyfPwuxP8CcE7//KLx0M/9Bp914OX+kd++DXj0df9JNtM2zGuIPe84h+MSx//cVOcDiewX3IVg775qYM+MzagLp/RaevjcWCG6HObJjmzltNpWifO6xzBwxSBM5+X7bhsnCwEN/6paxuI3WiugtWwLwyVeTSmw9SsAgRqu6yksWx6DY5YH7Ze2zPgk3WEdx9PnoV7CG7Q+di/+9Fx/2teqwV1/r3/ejz9W75Rr/WPn/tB4xI+Ovc4Fg1fYZy+537dc0zsnAPcm5zxzxmsmwvdLAwsuMv4Zll/lWBvQnbVRjad35Uffl9ca/r0139jHOHdyziFPFPG18+DVfGKNXHR74SozfNyYFwe9hXhB18H9T6FBxKsJl1QstvKChUIp4AuLO2c5oysxoqgFG6aFDr8XYBv/FsUXDicGP5tCp85/c7h/OwU2vBYJxzF9fJTj39B4wtBwccj6fk8anWcILFopi5/wDPG3d/7HXpLutc8qTYEPPhFX6Y/qWD6NIB2Eed4MYaYczTXwmgizjgfE6CdF6ObxmVXCF9MyxXDbjRRlCeAk+nNTEMXFBmKaiIR1vNtpUsuY5jtvVSBUI//7NR5VCsDryQefHjceOuvjkvP+3CJvO3FnznuxSsNforpzi/+gnxaufGL/2dc/513g0MNs1/MY/QPP3rnX9ULBVbuHscFJG9al5exUf+kHPnLL847e+FHGmuFesDOw34/P1MkAE+OEa6fb/EykfPMXvJ5cMfa1+8+nA9VRszmHTotAiaxNagFlj3z2pwo/cRxoL4YuuAoQ+4Uv1h6+AdfPW7nHzThybl6dVz9m7jp5KaVjCN+cfTIq//9OMMXlI/1hhEa3sBE87efAtbuOgJawBVqlk9Z6EVGl2kK5+UkZ7uVPCmmRCW9twez6eEgbKjM7OtPadDKK+TsU7omWGPwUZLefRw4RmLwD1cKd9QMMbIR4BPesgiDmnltlmnQSFQaVtbTWDfFEqFsCm7YB//nW8Zt+OPvd778Zfp7Vk2Ebjyv/eiPjwfxF/H0ZxSd7ikv+ZxxFVcVDnLa8P2NSx/1EVNITspwBe4/jivSg1/3T+xj9r1KvCt5B+QUjpOatBlAjxTs9d73zlpTD0HTKbFA23ORT/D1pCA5XTHIhyvRvFDY3oC6p6CquHFJvjRad+AOLowOW+xJ8JKjqyEBJJGYJD8tiaS2+/FXbR5969vG07/hq8fJx32scmf45NR7/uV3jUf/x8/js5T400XtRJ0897nj8l/8FMQuPnHRRD3bzGnKKBw3pY/+95+DIXUBV6+YswyiV++2tp6yDowx8804hXze2RoTgZh2cJBVMLtNhl39wOa88rse8NrwHCD6/YXR3qdgR+tKXdrcqAyjII+8gbRfBauGQMdOJVaxW1f4uYL/R4CHf/7N4/H/9YtZff033z4e/pk3jjMsiEKHvopkwU0MLowikmcuf2mlz2PyiB8+ReGoG1nlPM4z0vxzvkzpPjjsc52Ie06+vZxprUu7LN/xUJm9wcTYPTefKBXbqJwIZJPvYXtJSg4BoDVXmtsk9iAFWZrNa1WKmsuwbWyWeBo7Wz63OzAExqe06U+PLnE0Mkw4P/cZf60mpPLR9ThuPB/5gR8Owdn9CC8x+Rf4jvFnFqetaYj+mpR4hGJ4qcexrOcY+hVj6+f0Te3kJA8M2bou2BzHYNgDP3bfaQVMHd4ME/ntFQN88dThoDhTcW/r9xTM+unWIM2P5nYJi+WQyGVheIflkBO5xOlScObnsfhM8DAvDP5Z5vyomr69ZTxxYqiZa/jhN/zX8dB/+Wl15edxTD3uF/G3vT/g2c8eV9qi0HsjEoQdgOq5PJUgKN7U0/Q2U/1utjCSw3vG4yl+e5l8MRixxg7VcWIyhIosmudDkJWH8FgYrOMWKwI+7inmlc78ysFYD1Z/CuxXDCHnXRcwZ9LjJPFslC5fCN4oJvHo0vF44NU/Nk7wNMLt7Pd+v10lahzSjyuIvoMJHGlEhRN+iX+ZV69QyFCbt3IgD+DLheG4RY+RIoeGxh9Lj6HSw+p1TmNMYk5enhs4WNUeykL53F2wZQ0wWjjgCUWrHjbIheGcoUlPH0bA08LN9p0kB5QGCAsJAbe2MES/7pLIjTzQ4CRBD/5JMJ57r/3fXxnjl99qLBy0f1yfga1m44gxCcOXljsbh8aNV5kYnHqqvyW5VJkjJiYwsKzt/fd952cSGzm46dTRNPoLF4bhud/ZwCEajoFbO1/mItsWCsG5MFiIjT6ekH2LWQkfRy2WNd1wzkPkhA2KXu/jj1Q7+kyIxcNF3HDqYj7Pis5eL7JU79mkKim/LSKrqD3bZms3dOIy6NieY6jlmylw1yPoChDKdz3ndobWwfS6JE50ZjdlawAlsTijqBYFIhyAATp52cmXRtAcPl4E5SMv2WU0eZ6QIpI0v3eT5qVJPxGWYrERnDpP5zDbMBNVx8p2DAs8l4oDC4LeX9CJlPNsHWOfHAIHNUAOTDj9tRg1zAvjuxlmenqZnefobsWpARz+PkU98NQ0HoXEe6P1Ri5wSgMXV6zWKk1i9vIneH4/xV/JtUuaMfHiJXwvgB19jBQB/nOdvBfh8tJLQO8qDl/yUcvLNO9L9DIx1RV3tNSbl9ZCSV5SucVTGW3xa0ebyxsF7iuPiQt9+z71M2NbctAFT97OZA+O8cDWz7ggTciBkjh/mVZPG0e9JM0sBGlADHQZ1Sg09FclrXwx1U3zNSXwcvKZ3/nN+D8S8jeDf7CtT/qtMvBdz0sf8bwt3GRixBwn5wCnOYZfQ9cJw+owDNAygcuT2rA2j0ES81q+SNouORgDjy0MGvAhplG3qjKVTxDY+hioELk+Z7qigTcVIc8HQC4KK2gNloVhC2Fe/UJ7IbUc3lypkRgMYq7EX9o9XPiHn6GmEE8TMxSTFL/u0OJQzoBP6IqBEQQfB9MXSkyH+H2k+wuDhfgBEQ+mwgt0YAJR5Q1knOvCIMyIsqfqUBMb0ss9hXFnHgX8b97KFz+TaSxI1UcMv9zCJ5g3dJH+ozhC33W8dc6FkMIwPBsh98vofeiKym6Ynmt0nBs7EQzatvUj4/k+SeA1ahru+PszvUqY2rVTwv4dSXuOUU+H1B8taXUkmVcSk7aarEFdMQrbaTtZlo4HfvqN4+o/fdW47dNfhA/G1GctG/oCs63mHZS+CbYL2Q1qgq//wpvHAz/y2vYNLI4BeBwuumIYBHOQIE7q+/ZUUvNog3PGcJqeA/MMpNTXTovh0BXD0cbPPQTEb1fnP1pSkEZIPBdBJMNQdwU1oEhvjmiGyVM9vyr4A68Z4wd+ZINioHrYEuzPf/zdA9/YyQ/OQIYpCT1+2StXPXgPsd2qUjeeYNIYFPZx4WDn3PwaLdgS8v5fGNux2PmZ4tKXIn2i7Dxw0mKK7LyGx3GhBifB7ilg55sYjb0myhujICiYQxQcEWmFG7MtDJ2kqpnKEc4OsH1Yxibff5PISFFYTeJbInBTE457wXinGm91NkuDxUcqTJ3KHYKRvV+vGH3cNjE2F3GCSzmzUpc3w5pRjEEYn4KoCy769TACkhQXbloJxHRcty+q5sKIfHFUzGhTg2OnEilcE86Z4axQwiTPsSakmYYpPfAZ8oN3iZC5VqKY7Rj2EWQujaAoqEd4Ivq2uMFoEEBXfNZ6IdmKw/R0n/jyja/78+8+2BAvSfLR6sX9gWWCgMiVphZzl+iKTsTXI5N+f6RSvpUmhho4bWjgr/w0ifnoJF4RXixMxJ7frwUaMAKp2ZtGT2nSO52lhxB2EkaazGfXsMJgqSolm/lQZBrTizwaCm9URoNY6FGAo6Mwfwc2OSx5eK/BODGbyDSjUqtPOnTwp/n2uw+fYuBvtjB8ClxYE+ARHi4985nj6if+eZ9CT9R1qSFt4nqAJ+8Mv+fA/14ZYfzAjwWgzyF08GL334UsKZ9014ukvqHFGwff8htby30IEYUysG7KoE9x7M5g6a8jBBmOjNlbcRacTzr7r6ytGOaap8/FcYJPpNefUwRQ82RnRYx+9jl7Pn0go+f3Tox3P2XYwsj3KfwhTLiI9hYGZyDq64phzayw9ldf+MnjDvxP3v44bzGWP84ad7VxMV3GRwja5uuAa8DOUQTgZ8ytjY9ArU++eVUIrIt2CUN8XRgda3qimOsX//Wv7eEPg8avrpv2PzGf5Bngp9FP/fsidn78RpJ9+sLIE2/nTClidq4Ym9993GxhkExc/jDTFYPLDOLe/R3fPZ7+9S8fJ/iuRF1TDP9k799vj/L3W6M/2AzdwF+6Oft/9lECnW5fCHbqwbkuDLaJhUCTvj/aA3r0lnufZ6cZ2bqE0G6zwVw+cYhlwlrE+vMj9scH/uYCGTuvfzQxyvPYMQzS5z0Gb7zsccBY4zpAtP8eRbYR79qrsrzHw9RYox5GvM1Ny2h87uveZgfGkE04qPnfwrX6jX767EjG8dlV1UinRdXWeVNC62N5Yi27+nVPAUisFMLjCqACjGJ9KiGWnEbLCti6DccfW29/aNy0OAoH1QkMB98HnupdOJ+KIsOQ+fgOh8BWoYnFSTOPX0C0kr54+Y0x8rQyxxcHOdcTYXj+SQPmSBybOWcZg+E2D6GGNUcqrjrBsLOREWDj6j7RNi6hVSwr5gW/96c/adKrE8cbmeriZGaondyMuZrVr9cDzPCnb3kGEUTOTk4D7ODXUENLZ6fsOdpzzpim2KpB/syy7e+R+VBF5JiaaKiZX1IZT2NqaE6eUs+l70UKT3VIdB9NdfKjyepHPPlaMcz0XPzqs6zGZdnu41VflqgF/xRT36Y8oOvCWMq9W3EyP3EEuRcS2dBNbACdMlzytQqGs14Gsx7Jg8eaH3Q6Mu65iHfN6xhtTEQmYVgq529Xs4a2/9dBqszyNKL9Zs5WPcnvFTlm+uoZCeP2Dk2Ym0o4xkG6UvSG4rzZwlgULa4PKGWEOj82Xa2w0BgeHPO5d8sOxgHbT7Ol5c9tEp7Gmp8TnIN1HiQkygTnbq7rvmUMM6G6I9swovbcNJ7s2QvRiRo9x0ObPkWnLICJdeDqi0OVZRGaTx/rhPCK0Ztu8tXSBGVH62L4CpKrcyR3Gm0Q5K7Skt1jsnuglXgus25s/Yy4aBxaiOauZldU0oEUeCrX108TI4ifemKxeUkragmDdDkWScJdF3jnYBpmel63+mKpoNxcFOJYGoo0C9Cg5xGffGpo2OBbMU1m4ddCScPw2MPttHoP5T3Ag3wVOLxNkWB+UgjJMjeiTE3nWAlFmfMEwazReK2a+9af/J228aTpFd1nw3UO6U9U3Vm7IpdpE7/rKyUgfiGWBRSNbRUghgZa87M81tuPsYmRrOlanr7FXGcWVcZrq3Rbk5AJVN0UpkLP5yENMlRenktJYaa0j7ulrMLpDCnC6Kj8ze8xXOEOj0vaOS8JFmTVlGNmFtBEO3D1HSYgrhRt0kSPyNJhcec8G64A54mD5VNGhHG0GMtF0XgKDX3MZ5VZDapkjoLpjvfCnKTmy2x+tiAF41MTug7OlEAqY8rSjkmoYdIlujtpu0L3p/Gow9xfNE2P+Q4MfG8E3mpl1uqLA7t8+shJC8K14ZNwj9F7bCbR+/YTkaKnsxzS4ySE4Ion1WIk32q43/WJDXF+pbBv24UhZIfAthqNMTP+P8sLOnL7fw5XndKBiUT6HHNzWLHxs6GMaUwoZbUYvC7ZGs/09DER7DQkW6udBTFn7VIVsR1PxzApZconNg0fQAxPPYLeOBpU4NTgLbKTjOjPwRnPFp8V0WgZBN3ClGmx1Wefhm72oiFBrsj9VJz5uT9Fdj3mc19bjpGh5KVtTlK7r/cp+PeSYpsIVFc5YVYXtSkKubWeNY1ezuQvPTKXBjljU4PZZ8cCCEwNCnFnJUbguNTYfMWaHx15JH+O0RPdr/5GsPqTBji8+OQFqPd0m6JlNl9t079YT2h2qV5KTifoBxeb1PDz6WMlmPwapTVY3sfoWPbN5lOiO5QQPxZfJ1ktW98UbQ06mewGNWrxFyzr3cgpyoTrbvmqhsX41IRuFZdpsdXfk53VbmjeWlBmz1FQ5uf+SlVTuqtcxXLXeAIYoVwU/Wohwt5dDaLEaPfe+cxJAjRtV0G9XTPz5hfvWqPSXuRcYFJtq9xC2U//IUWgfCeoQgs0v58Y2V7CA6WsGrtfUo1w9cUhPuZtDE/kijGNRzz7etpwfI4dbF27o6lRwMWyNhcFE1wYE+Hk7QjgFaMXkKRtM1tLpBnFcWSibOqU1iY4S4kraNY51GDKT6Aq8VxqnGHJnfloTNyC3V8YLiGxMDa1mWx6vVGmXEHzhUgftNOgkV38xYWMXtxkOXBaFGy2NpgIPN8o1b83neoBnPytXuU7hlzdpyZt3oS9qz/UCe8Yz3Q9DHEMGocXZ33zFfPEhFc/VUeTjWYmumbr7+TKMS8Ud6ZZlrzNPcba30bAQiuyfPlimQbNHqtmq439lE1ech64p7jZU4mPMPgltmvqE0TQJMD6Vq1bK0akkXPRvW+EOs7glul6YjJ706pntHnNFD79NIyG7tRk9iu11EWvKTw5k5yAMyhUQt1In3KaQ5WLv7jBSOTUc3pJalnb38pTySQBTm86CVRuQgvb8Qyc60bFcMx1jsSm0cfB2tnXOHtL5dvEdrxwzHlBHjzW/D5HG41I7mp23pJuhNw7tSzeXySGtv9XIFfoRa6uk0z9qZV6qkfjZxLblFVP3FPYX5w1wLrvA9wQKNDbIbC6OUJjngRYqCYhfD/WoUhJJ8rG27JLf8s0qOergnrTcyM1ZmIWlvkQSI6pCRLNL9MIJ58h1gcXrLIt11JuOiaBbqR/sR6SlAajnLqCR/cUZ/h85WZgLuFmTyVr3YW/XUXDFb8RCcUXXTFc1jSymg/WIlUgWdMkKN+moeO9kAeZ6RMPp/nZggZT+TLCYH2c1d8IVr9Ri+yP6ooRs5I3mn0Q04BtzFMoiiO4qfXJO5Tf4NnjJjU21cZIrPBrkdJMTmiLdn7ZbRQd7znrhH2vY9D9Vp3QdRB9nCXVCFa/UavJ1LY7abtx0IfUamIaF39xcxy5KBg5dMUg+a3cYyQrjAuvGMzH7Paixe4YDmAzSOJ9ZDk34iB4ISuoJZSfQel5bvabZk90fSSVxnbFsFiyhFQimZr95FSKWb0q8eGphP3UM7GuoPmqdp/2OmdbXxW5I+O0KPZIEg1jQwiCvq35JT3Xo3TF5wQEKQL2VBIBHqunTgJdL6yM4TKvGss6lABRcRKUEU9j96BVGdZKPJKHRDCtbTuuwlR/i00+Q/hp6GZbzjp0u+lXePaJ39NTPZgnqjb7Zl75sg5dMZjUFaOxuIRk2AhY3hJnvmO29UmVRsewda8vkI2M+xpjWYlDtsl38IxLTwa7eyQPHmt+8ZuAVWP3q78R2JjIkIRhKfZE7zE6D1m59f4e0CF2pclvNHugQJw8FxlBP67RnLTIL3XrW+ITHcjWPks5ASiZu/aaxKfR0RyHUzSOBhXYTjOB1iq7uZFjzEQM1o6Z9zB5ukaFW9MyDxCioDILeyUayDGeo6dIw6566AvjmkNTPn1EIMbE40rSc0/qqxL2wn99W/XUAArX9SU+jTZfC3f0adAOtjTaZCcaq6+QI/LgRjZAWWvC7OQn3IyCwhfYDkZ383sMosVkdKGik0z9BViw1JCLgoASVXw3eyopZErKUJ8ABdGw95jyys0KO9bqMegl2P1MpZFSYLA2+rOP9ZqgzHvc+gUqeFrWyoVXtPmBDo5p0Ay2pmWWHoslYVPU+otHHUyzw3MEWc4aOJln++ZIjmOMbl4U6jPjBVtJvFYHXjH6VWORvREgfa3Hyr2tn+bQ9GiERWIc5ud43WC0Ibv0zGQNswBPGuR7mcjaBBaxAdyf6klJjtbEaKq4UhVbCKcxrPcYxKpnlruC9I2tkUx6lG1Yfcim+ZZfA4hedMVg0TzomaDnrIH2uWM+K2Bs8OJPOAEbjE2ssdCWZUEVWoYmaz3fMg2qJBVlzYRXUWUdZPgCtuooAG8yWufml2mY1TeS2C/sTUMXrXDLdZ9M6zyHb08fUOC10XXVr3gUJagZm/qFca3d3HzWLNy0V7Tt73wyZhQ5CwZrvKURlv1zKss0qPLcZU3He7DnnMh7xiERCpC/v/PJYJ+X6m91k89a/hg1K/U+Rr4t4gkpTpDrP+jP/UNP3VOUgmqbZBm68IrRn0bUoA0hGhYTBC2fx+gTtF/fq29u55DSmCeV8mqIZjWoJwsx4RXmpHs+D2lIYOa73KkJ2jS/TONZ/UmD9/aOORj1bEGZzXdhqaj3Z/DS5uv6+Erz9IXYyXEeffu11lOyw4i/FhQs1BK2cOIrUuUblfyG0bfCm6IYW3zz2vDB53+wo9ezf6bNUI3EcIdY5A/EJg3ATvXpO4n7xgxnzSNhmtnaazJmfuZJAoLVZ9Q00SKf1SVd7+ktiJHZcyzOPOWY8/8BLJp1ivxveYIAAAAASUVORK5CYII=;" vertex="1" parent="SZCZL3pSRK76lvEdMUhm-2">
          <mxGeometry x="60" y="200" width="84" height="84" as="geometry" />
        </mxCell>
        <mxCell id="SZCZL3pSRK76lvEdMUhm-29" value="AWS Cost Explorer" style="sketch=0;points=[[0,0,0],[0.25,0,0],[0.5,0,0],[0.75,0,0],[1,0,0],[0,1,0],[0.25,1,0],[0.5,1,0],[0.75,1,0],[1,1,0],[0,0.25,0],[0,0.5,0],[0,0.75,0],[1,0.25,0],[1,0.5,0],[1,0.75,0]];outlineConnect=0;fontColor=#232F3E;fillColor=#7AA116;strokeColor=#ffffff;dashed=0;verticalLabelPosition=bottom;verticalAlign=top;align=center;html=1;fontSize=12;fontStyle=0;aspect=fixed;shape=mxgraph.aws4.resourceIcon;resIcon=mxgraph.aws4.cost_explorer;" vertex="1" parent="SZCZL3pSRK76lvEdMUhm-2">
          <mxGeometry x="520" y="206" width="78" height="78" as="geometry" />
        </mxCell>
        <mxCell id="SZCZL3pSRK76lvEdMUhm-30" value="AWS Budgets" style="sketch=0;points=[[0,0,0],[0.25,0,0],[0.5,0,0],[0.75,0,0],[1,0,0],[0,1,0],[0.25,1,0],[0.5,1,0],[0.75,1,0],[1,1,0],[0,0.25,0],[0,0.5,0],[0,0.75,0],[1,0.25,0],[1,0.5,0],[1,0.75,0]];outlineConnect=0;fontColor=#232F3E;fillColor=#7AA116;strokeColor=#ffffff;dashed=0;verticalLabelPosition=bottom;verticalAlign=top;align=center;html=1;fontSize=12;fontStyle=0;aspect=fixed;shape=mxgraph.aws4.resourceIcon;resIcon=mxgraph.aws4.budgets_2;" vertex="1" parent="SZCZL3pSRK76lvEdMUhm-2">
          <mxGeometry x="652" y="206" width="78" height="78" as="geometry" />
        </mxCell>
        <mxCell id="SZCZL3pSRK76lvEdMUhm-31" value="証跡管理・運用監視サービス" style="text;html=1;align=center;verticalAlign=middle;whiteSpace=wrap;rounded=0;" vertex="1" parent="SZCZL3pSRK76lvEdMUhm-2">
          <mxGeometry x="247.5" y="40" width="165" height="30" as="geometry" />
        </mxCell>
        <mxCell id="SZCZL3pSRK76lvEdMUhm-32" value="セキュリティサービス&lt;span style=&quot;color: rgba(0, 0, 0, 0); font-family: monospace; font-size: 0px; text-align: start; text-wrap: nowrap;&quot;&gt;%3CmxGraphModel%3E%3Croot%3E%3CmxCell%20id%3D%220%22%2F%3E%3CmxCell%20id%3D%221%22%20parent%3D%220%22%2F%3E%3CmxCell%20id%3D%222%22%20value%3D%22%E8%A8%BC%E8%B7%A1%E7%AE%A1%E7%90%86%E3%83%BB%E9%81%8B%E7%94%A8%E7%9B%A3%E8%A6%96%E3%82%B5%E3%83%BC%E3%83%93%E3%82%B9%22%20style%3D%22text%3Bhtml%3D1%3Balign%3Dcenter%3BverticalAlign%3Dmiddle%3BwhiteSpace%3Dwrap%3Brounded%3D0%3B%22%20vertex%3D%221%22%20parent%3D%221%22%3E%3CmxGeometry%20x%3D%22287.5%22%20y%3D%22160%22%20width%3D%22165%22%20height%3D%2230%22%20as%3D%22geometry%22%2F%3E%3C%2FmxCell%3E%3C%2Froot%3E%3C%2FmxGraphModel%3E&lt;/span&gt;" style="text;html=1;align=center;verticalAlign=middle;whiteSpace=wrap;rounded=0;" vertex="1" parent="SZCZL3pSRK76lvEdMUhm-2">
          <mxGeometry x="177.5" y="180" width="165" height="30" as="geometry" />
        </mxCell>
        <mxCell id="SZCZL3pSRK76lvEdMUhm-33" value="コスト管理" style="text;html=1;align=center;verticalAlign=middle;whiteSpace=wrap;rounded=0;" vertex="1" parent="SZCZL3pSRK76lvEdMUhm-2">
          <mxGeometry x="542.5" y="180" width="165" height="30" as="geometry" />
        </mxCell>
      </root>
    </mxGraphModel>
  </diagram>
</mxfile>
